<?xml version="1.0" standalone="no"?>
<!DOCTYPE svg PUBLIC "-//W3C//DTD SVG 20010904//EN"
 "http://www.w3.org/TR/2001/REC-SVG-20010904/DTD/svg10.dtd">
<svg version="1.0" xmlns="http://www.w3.org/2000/svg"
 width="968.000000pt" height="233.000000pt" viewBox="0 0 968.000000 233.000000"
 preserveAspectRatio="xMidYMid meet">
<metadata>
Created by potrace 1.16, written by Peter Selinger 2001-2019
</metadata>
<g transform="translate(0.000000,233.000000) scale(0.100000,-0.100000)"
fill="#000000" stroke="none">
<path d="M6051 1763 c-1 -6 4 -15 9 -18 19 -12 11 -38 -10 -32 -11 3 -20 1
-20 -4 0 -5 107 -9 248 -10 l247 0 64 -80 c34 -43 68 -76 73 -72 7 4 9 -3 5
-19 -5 -18 -2 -28 7 -31 16 -6 43 19 33 30 -4 3 -2 12 4 20 9 10 8 17 -1 28
-10 12 -10 15 1 15 9 1 8 4 -4 11 -14 8 -23 7 -39 -8 -21 -18 -21 -18 -15 2 7
18 6 19 -6 3 -8 -10 -17 -15 -20 -11 -4 3 -2 12 4 20 9 10 8 18 -6 33 -10 11
-22 20 -27 20 -5 0 -2 -7 6 -16 17 -16 12 -39 -5 -28 -5 3 -7 9 -4 14 3 5 1
11 -4 15 -6 3 -8 12 -4 20 3 8 0 15 -7 15 -6 0 -8 -4 -5 -10 3 -5 1 -10 -4
-10 -10 0 -16 22 -12 44 1 5 -5 6 -13 3 -9 -4 -18 -2 -21 3 -4 6 0 10 8 10 8
0 17 7 21 15 4 12 2 13 -14 3 -15 -10 -22 -9 -38 5 -10 9 -29 16 -43 16 -21
-1 -21 -2 6 -9 l30 -8 -30 -2 c-29 -2 -29 -2 -5 -9 14 -4 27 -4 28 1 4 9 22 1
22 -10 0 -4 -83 -8 -185 -10 -136 -2 -185 0 -185 9 0 9 -3 9 -14 0 -7 -6 -22
-8 -32 -4 -15 6 -7 11 36 25 33 11 41 16 20 12 -85 -15 -87 -15 -65 -4 19 10
19 10 -2 6 -12 -2 -24 1 -27 8 -3 8 -5 8 -5 -1z"/>
<path d="M6851 1747 c-17 -26 -13 -32 14 -30 11 2 14 0 8 -3 -32 -14 -6 -19
82 -16 54 2 95 0 95 -5 0 -5 -9 -61 -20 -123 -12 -62 -19 -119 -16 -127 3 -7
1 -13 -5 -13 -6 0 -9 -10 -8 -22 1 -13 -1 -31 -5 -40 -4 -9 -5 -22 -1 -29 4
-6 2 -15 -5 -19 -16 -10 -4 -43 12 -35 7 3 3 -2 -9 -11 -22 -16 -33 -52 -13
-39 6 4 7 11 4 17 -4 7 -2 8 4 4 7 -4 12 -3 12 3 0 6 8 7 17 4 17 -7 17 -6 0
20 -21 32 -21 37 -1 37 9 0 12 -5 8 -12 -4 -7 -3 -8 4 -4 18 11 14 22 -10 34
-13 6 -17 11 -10 11 6 1 12 9 12 19 0 14 2 15 10 2 7 -12 9 -10 8 7 -1 11 -7
19 -13 16 -7 -2 -12 3 -12 11 0 8 5 13 11 12 6 -2 7 -1 3 2 -4 2 -2 11 5 20
10 12 10 14 1 8 -7 -4 -13 -2 -13 3 0 6 6 11 13 11 8 0 7 4 -3 10 -8 5 -10 10
-4 10 6 0 11 8 11 18 0 36 3 43 16 36 8 -5 8 -2 -2 9 -17 21 2 23 23 2 8 -8
17 -11 20 -6 3 5 -8 14 -24 21 -16 7 -27 16 -25 21 7 10 36 0 48 -15 5 -6 6
-1 2 10 -3 13 0 28 8 35 28 30 6 105 -28 93 -6 -3 -17 1 -23 9 -9 11 -8 14 3
14 8 0 12 -4 10 -8 -3 -4 4 -5 16 -2 19 5 19 7 5 15 -9 5 -21 6 -26 3 -6 -3
-10 -2 -10 4 0 16 21 24 33 12 6 -6 18 -11 27 -10 10 0 11 2 2 6 -6 2 -10 8
-8 11 2 4 -11 8 -29 8 -19 0 -32 -3 -29 -8 3 -4 -3 -8 -13 -8 -10 0 -14 -4 -8
-8 27 -19 9 -28 -61 -31 -42 -1 -74 2 -74 8 0 5 10 7 23 5 20 -4 21 -4 2 5
-11 5 -31 7 -45 5 -18 -3 -20 -2 -8 3 10 5 14 13 10 20 -5 9 -12 6 -21 -10z"/>
<path d="M7923 1754 c0 -7 4 -11 8 -8 4 2 10 0 14 -6 3 -5 2 -10 -4 -10 -11 0
-9 -19 3 -39 7 -11 5 -13 -7 -8 -11 4 -14 2 -11 -7 3 -8 1 -17 -5 -21 -6 -3
-11 -1 -11 6 0 7 -6 4 -14 -6 -8 -11 -12 -23 -10 -27 3 -5 1 -8 -5 -8 -16 0
-19 24 -4 38 19 19 16 29 -9 27 -25 -2 -33 -32 -12 -52 10 -10 11 -17 3 -26
-14 -15 -61 -19 -52 -4 3 6 1 7 -6 3 -6 -4 -9 -12 -6 -17 3 -5 -1 -6 -9 -3 -9
3 -13 11 -9 18 3 6 2 7 -2 3 -12 -10 -15 -38 -4 -31 5 3 9 1 9 -5 0 -5 -5 -13
-10 -16 -8 -5 -8 -11 -1 -19 6 -7 7 -16 2 -22 -6 -5 0 -16 15 -27 23 -17 24
-17 29 10 12 58 22 73 98 137 l79 66 223 0 224 0 65 -77 c36 -43 66 -86 66
-96 0 -10 5 -15 11 -12 6 4 8 13 5 21 -3 8 -2 14 3 14 11 0 21 -38 12 -43 -3
-2 0 -2 7 -1 6 2 12 -4 12 -12 0 -11 -5 -14 -17 -9 -32 12 -36 10 -43 -21 -10
-46 -16 -51 -51 -46 -23 3 -30 1 -25 -7 4 -7 16 -9 27 -6 17 6 23 -2 21 -25 0
-3 9 -7 21 -7 20 -2 21 -1 5 11 -19 14 -25 32 -7 20 6 -3 22 0 36 7 18 10 23
19 20 36 -3 15 1 23 10 23 8 0 12 -4 8 -9 -3 -5 -2 -12 3 -14 4 -3 7 12 7 33
0 21 -4 38 -10 37 -5 -1 -10 9 -10 23 0 15 5 24 13 22 10 -2 10 2 1 20 -17 33
-23 37 -15 10 5 -16 3 -24 -9 -29 -25 -9 -37 18 -17 34 14 11 14 13 2 12 -31
-3 -36 2 -34 31 2 26 0 28 -17 19 -22 -11 -26 -24 -6 -16 8 3 14 -1 14 -9 0
-20 -10 -17 -35 9 -18 19 -19 26 -9 36 6 7 8 11 2 10 -5 -1 -24 4 -42 10 -21
8 -30 17 -26 27 4 12 8 12 18 -3 8 -10 17 -15 21 -10 4 4 2 7 -6 7 -9 0 -10 3
-1 13 8 10 7 14 -2 14 -6 0 -19 2 -27 4 -9 3 -14 -4 -15 -16 0 -19 -7 -20
-211 -21 -128 -1 -218 -5 -230 -12 -22 -12 -47 -2 -36 14 10 15 42 25 42 14 0
-6 5 -10 11 -10 5 0 7 5 4 10 -3 6 -2 10 4 10 5 0 13 -4 16 -10 3 -5 12 -10
18 -10 7 0 6 4 -3 10 -13 9 -12 12 4 25 25 19 9 19 -23 1 -24 -13 -55 -11 -47
3 2 3 -8 7 -23 7 -17 1 -28 -4 -28 -12z"/>
<path d="M9459 1753 c-11 -15 -11 -16 1 -5 16 14 34 16 26 3 -4 -5 0 -12 6
-15 7 -3 4 -4 -7 -3 -11 1 -19 -3 -18 -9 1 -6 -4 -11 -12 -11 -8 0 -12 4 -9 8
2 4 0 10 -6 14 -5 3 -10 -1 -10 -9 0 -8 -8 -17 -17 -19 -10 -3 3 -5 29 -6 29
-1 48 4 51 12 4 9 6 9 6 0 1 -6 -3 -15 -9 -18 -5 -3 -10 -15 -10 -26 0 -10 5
-19 10 -19 6 0 10 -4 10 -10 0 -5 -5 -9 -12 -7 -6 1 -15 -17 -20 -40 l-9 -43
-267 -2 -266 -3 -23 -125 c-26 -145 -26 -150 -14 -150 5 0 7 10 4 23 -5 21 -4
21 16 -3 25 -32 48 -17 31 21 -10 24 -10 23 -5 -3 3 -16 1 -28 -5 -28 -5 0
-10 6 -10 14 0 8 -6 17 -12 19 -10 4 -10 8 1 15 11 8 11 10 0 14 -7 2 -10 11
-6 22 4 9 11 14 17 11 6 -4 8 -10 5 -15 -3 -4 1 -10 8 -13 7 -3 13 3 13 13 0
10 -4 17 -7 14 -8 -5 -22 14 -25 33 -1 7 1 15 6 18 4 3 6 15 2 27 -3 13 -1 19
6 15 5 -4 9 -18 7 -32 -1 -14 2 -25 6 -25 5 0 9 6 10 13 0 6 2 26 4 42 3 22 2
25 -4 11 -7 -18 -8 -18 -14 -2 -4 9 0 28 9 41 l15 23 254 -1 c218 -2 256 0
261 13 4 8 7 18 6 21 -1 4 4 6 11 5 7 0 12 4 12 9 0 6 -5 10 -10 9 -6 -1 -12
7 -12 18 -1 10 2 16 7 13 5 -3 14 4 20 16 7 12 8 19 2 15 -5 -3 -13 1 -16 10
-3 8 -2 12 4 9 6 -4 7 1 3 11 -5 12 -3 15 6 9 10 -6 11 -3 2 12 -7 14 -7 24 2
33 8 9 8 11 1 7 -7 -4 -14 0 -18 8 -7 20 -21 19 -37 -2z"/>
<path d="M4085 1721 c4 -22 -31 -55 -48 -44 -13 8 -88 12 -105 5 -11 -4 -11
-6 0 -13 10 -7 10 -9 1 -9 -7 0 -13 -5 -13 -11 0 -8 5 -8 15 1 8 7 12 16 9 21
-6 10 9 12 19 2 4 -3 -1 -15 -10 -25 -13 -15 -14 -21 -5 -27 7 -4 10 -15 6
-24 -7 -20 -25 -23 -21 -4 1 7 -10 12 -30 12 -32 1 -42 -8 -24 -20 5 -3 12 -1
16 5 3 5 13 10 21 10 11 0 8 -7 -9 -22 -19 -18 -22 -28 -16 -45 9 -25 -12 -60
-29 -49 -17 10 -15 26 2 20 19 -7 27 8 14 26 -8 12 -9 12 -4 -2 8 -26 -13 -22
-23 5 -8 19 -9 18 -9 -11 1 -18 5 -35 10 -38 5 -3 3 -13 -4 -22 -11 -13 -11
-14 7 -5 18 10 20 8 21 -24 1 -24 -2 -31 -9 -24 -18 18 -23 13 -23 -23 0 -19
4 -32 8 -29 18 10 19 -29 2 -43 -18 -14 -18 -14 4 -4 14 7 22 20 22 36 0 14
-4 23 -9 20 -5 -3 -12 1 -15 10 -9 24 -8 26 15 13 20 -10 21 -9 17 15 -3 14
-1 26 4 26 4 0 6 14 3 30 -3 17 -1 30 5 30 5 0 10 10 10 23 0 25 35 62 127
137 56 46 69 68 50 86 -3 4 -5 -3 -2 -15z"/>
<path d="M6048 1513 c-46 -37 -47 -39 -64 -133 -10 -52 -18 -110 -18 -127 -1
-18 -5 -33 -10 -33 -4 0 -6 -11 -2 -24 3 -12 3 -26 -1 -30 -9 -9 -11 -46 -2
-46 4 0 9 7 13 15 3 8 1 15 -5 15 -6 0 -7 5 -3 11 4 8 13 4 26 -12 10 -14 17
-17 16 -9 -2 8 -8 19 -14 25 -19 17 -23 42 -8 42 8 0 13 -6 10 -13 -3 -8 -2
-16 3 -18 14 -9 8 29 -8 48 -15 18 -15 19 0 14 13 -5 16 0 14 26 0 17 -5 38
-10 45 -5 10 -4 12 3 7 8 -5 10 2 6 24 -4 18 -2 30 4 30 6 0 9 10 8 23 -2 13
1 34 6 46 7 19 11 21 23 11 9 -7 17 -11 18 -9 1 2 9 13 17 23 12 16 12 18 1
11 -8 -4 -26 -9 -40 -11 -25 -2 -25 -2 -7 11 10 8 23 12 27 9 5 -3 6 3 2 13
-6 16 -5 17 13 3 17 -13 18 -13 7 0 -22 29 16 37 182 37 88 1 163 -1 167 -3
12 -7 -3 -34 -16 -28 -6 3 -2 -3 10 -13 11 -10 20 -26 18 -36 -2 -18 11 -23
20 -8 4 5 1 11 -6 13 -8 3 -6 6 4 10 11 5 15 2 13 -10 -2 -9 -4 -23 -4 -30 -1
-7 -5 -11 -10 -8 -10 7 -9 -13 2 -31 4 -7 1 -10 -10 -9 -11 2 -18 11 -17 24 1
12 -4 18 -11 16 -12 -5 -14 -48 -3 -59 4 -4 4 -14 0 -23 -5 -14 -4 -15 10 -2
14 13 14 16 -1 27 -14 10 -13 12 7 10 20 -1 22 -5 18 -36 -4 -34 -22 -54 -40
-44 -5 3 -6 1 -2 -5 4 -6 14 -8 24 -5 15 6 15 5 3 -10 -7 -9 -18 -14 -25 -10
-6 4 -5 0 2 -9 9 -11 9 -18 2 -21 -6 -3 -5 -4 2 -3 7 2 13 8 13 15 0 6 5 15
11 19 18 12 47 201 33 218 -13 16 -33 19 -24 4 4 -6 -1 -7 -11 -3 -15 6 -15 7
1 15 15 9 15 11 0 28 -15 16 -35 18 -178 19 l-162 1 -47 -37z"/>
<path d="M7610 1326 c0 -17 34 -39 44 -29 3 3 6 1 6 -6 0 -8 -10 -11 -27 -9
-15 2 -27 -2 -29 -10 -1 -7 0 -8 3 -2 2 5 9 8 14 4 5 -3 1 -17 -9 -32 -13 -18
-30 -89 -51 -212 -18 -102 -38 -190 -44 -196 -7 -7 -47 -42 -90 -78 l-79 -66
-236 1 -237 0 -73 90 -74 89 11 50 c6 27 8 56 5 64 -3 8 -1 17 5 21 6 3 11 14
10 23 0 15 -1 15 -8 -1 -4 -10 -11 -17 -15 -15 -5 2 -10 -5 -12 -14 -1 -10 2
-18 7 -18 5 0 9 -7 9 -16 0 -8 -4 -13 -8 -10 -4 2 -8 -31 -8 -74 0 -58 3 -77
11 -70 7 6 15 7 18 3 10 -9 9 -25 -1 -19 -4 2 -14 1 -22 -5 -11 -6 -12 -9 -2
-9 8 0 10 -5 6 -12 -6 -10 -5 -10 8 -1 8 7 19 9 23 5 5 -4 5 -1 1 6 -9 16 9
16 22 -1 8 -9 8 -17 0 -27 -8 -12 -9 -11 -4 5 6 19 5 19 -8 3 -15 -20 -31 -24
-20 -5 6 9 5 9 -8 0 -8 -7 -18 -11 -21 -8 -4 3 -4 2 -1 -3 8 -10 84 -10 78 0
-3 4 0 8 6 8 6 0 10 -8 8 -17 -1 -10 2 -24 6 -32 7 -10 5 -13 -5 -9 -10 4 -14
-2 -16 -20 0 -16 2 -20 7 -12 5 8 9 9 14 1 4 -6 12 -11 19 -11 6 0 2 6 -9 14
-18 14 -18 15 -1 21 10 4 24 1 34 -6 9 -8 26 -13 37 -11 16 2 18 1 7 -6 -10
-7 -5 -9 18 -7 17 1 35 6 39 10 4 5 2 6 -3 2 -6 -3 -17 -2 -25 3 -19 12 297
10 328 -1 13 -5 21 -5 18 0 -3 4 9 8 27 9 31 1 31 0 9 -12 -20 -11 -18 -12 22
-12 32 0 42 4 35 12 -12 15 -2 23 22 17 16 -5 17 -8 7 -22 -12 -14 -11 -14 4
-3 10 8 14 20 11 29 -5 12 -3 14 8 8 11 -6 12 -5 2 5 -10 11 -15 11 -28 0 -25
-21 -17 2 12 32 26 27 27 27 47 10 10 -9 16 -11 12 -4 -9 15 6 16 21 1 8 -8
13 -7 18 2 5 8 4 10 -4 5 -6 -4 -14 0 -17 9 -4 10 -13 14 -23 10 -9 -3 -5 4 9
15 14 11 28 20 31 20 4 0 9 9 12 20 3 11 11 19 17 18 7 -2 15 3 18 11 3 10 0
11 -9 5 -11 -6 -12 -5 -3 7 6 8 10 22 9 32 -4 20 16 18 23 -3 3 -7 0 -10 -5
-7 -5 3 -10 0 -10 -7 0 -7 6 -13 13 -13 7 0 11 3 9 7 -2 3 0 12 5 20 11 18 -6
41 -26 33 -21 -8 -17 11 8 33 19 17 21 17 15 2 -3 -10 -3 -19 1 -22 4 -3 8 11
9 31 0 20 -3 30 -7 23 -5 -8 -10 -3 -14 15 -4 14 -3 31 1 38 8 13 8 15 18 101
7 67 21 100 37 90 7 -4 6 -9 -3 -15 -11 -7 -11 -9 -1 -9 7 0 15 7 18 15 4 8
11 12 18 8 6 -4 4 2 -4 12 -14 17 -13 18 3 12 9 -3 17 -2 17 3 0 6 -4 10 -10
10 -6 0 -6 10 1 27 6 15 7 24 3 20 -4 -3 -13 1 -21 11 -13 15 -14 15 -9 -8 3
-14 3 -19 0 -12 -3 6 -11 9 -16 6 -6 -4 -8 -2 -4 4 3 6 2 13 -4 17 -5 3 -10
-1 -10 -9z"/>
<path d="M9354 1182 l-9 -57 -229 -3 c-149 -1 -234 -6 -243 -13 -10 -9 -13 -8
-13 1 0 8 -3 11 -6 8 -3 -4 -1 -16 6 -27 7 -14 7 -21 0 -21 -5 0 -10 6 -11 13
-1 10 -21 -89 -44 -220 l-6 -33 266 0 c214 0 265 -3 265 -13 0 -8 -5 -39 -11
-70 l-12 -57 -354 0 -355 0 6 28 c17 84 18 102 7 102 -7 0 -10 4 -7 9 8 12
-19 33 -29 23 -4 -4 -2 3 5 15 8 12 20 19 28 16 11 -5 11 -7 0 -14 -9 -6 -9
-9 -1 -9 6 0 14 -8 17 -17 2 -10 3 -3 1 15 -2 17 1 32 6 32 5 0 9 7 9 15 0 8
-5 15 -12 15 -6 0 -8 3 -5 6 12 12 -13 43 -32 41 -11 0 -18 -5 -15 -9 3 -4 11
-5 18 -2 17 6 27 -18 15 -37 -7 -11 -9 -10 -9 5 0 11 -3 16 -7 13 -3 -4 -13
-1 -21 6 -13 9 -14 9 -8 0 4 -7 3 -13 -2 -13 -16 0 -22 13 -11 27 6 7 10 13 8
14 -10 2 -49 6 -49 4 0 -11 49 -63 55 -57 5 4 5 -1 2 -10 -4 -13 -2 -16 11
-12 15 5 15 4 2 -8 -8 -7 -17 -24 -18 -38 -4 -21 -2 -22 12 -11 20 17 21 7 1
-12 -13 -13 -13 -16 1 -21 8 -3 12 -2 9 4 -3 6 -2 10 4 10 14 0 23 -18 13 -24
-5 -3 -7 -17 -4 -31 2 -14 0 -25 -6 -25 -6 0 -10 -13 -10 -28 1 -33 -8 -31
158 -31 86 0 139 -5 170 -16 35 -11 41 -12 27 -1 -15 12 -7 14 68 15 47 1 95
-4 106 -10 16 -8 20 -8 14 1 -9 15 60 9 95 -9 24 -11 24 -11 6 4 -19 15 -19
15 6 13 15 -1 25 -5 22 -9 -2 -4 3 -10 12 -13 21 -8 24 -8 24 5 0 5 -6 7 -12
3 -9 -5 -9 -3 0 7 11 12 15 11 26 -3 12 -16 15 -15 36 14 12 17 17 27 10 23
-10 -6 -12 -4 -7 10 4 9 2 25 -5 33 -11 13 -10 15 2 10 11 -4 15 2 15 23 1 16
-3 25 -10 22 -5 -3 -5 0 2 7 9 9 9 18 1 33 -7 14 -7 22 2 27 8 5 4 9 -12 13
-12 4 -25 2 -26 -4 -3 -6 -9 -6 -18 2 -18 15 -18 5 0 -13 11 -12 5 -14 -36
-16 -31 -1 -47 2 -43 8 3 5 1 10 -4 10 -6 0 -11 -5 -11 -10 0 -6 -21 -11 -47
-11 -27 0 -100 -2 -165 -4 -106 -3 -117 -2 -121 15 -3 11 -2 21 1 25 3 3 7 16
9 28 2 16 0 18 -6 8 -6 -9 -11 -10 -15 -2 -4 6 -1 14 7 17 17 6 17 21 -2 49
-9 15 -11 16 -7 3 3 -10 1 -18 -4 -18 -14 0 -12 21 5 53 9 19 10 25 2 21 -7
-4 -4 2 6 13 11 13 27 19 40 17 21 -4 21 -4 2 5 -11 4 -23 7 -27 4 -5 -2 -8 0
-8 5 0 12 47 25 60 17 5 -3 7 -12 4 -19 -3 -8 4 -16 18 -20 38 -10 45 -6 13 9
l-30 13 30 2 30 2 -30 9 c-21 6 -8 7 40 4 39 -3 111 -7 160 -11 109 -6 135
-11 135 -25 0 -6 -5 -7 -12 -3 -7 5 -8 3 -4 -5 6 -9 13 -8 29 6 19 17 20 17
14 1 -4 -10 -2 -18 3 -18 6 0 10 7 10 16 0 8 4 13 8 10 5 -3 9 1 9 9 0 18 -13
20 -20 3 -4 -10 -6 -9 -6 1 -1 11 -4 11 -18 0 -9 -8 -14 -9 -11 -3 5 7 -24 11
-85 13 -51 1 -94 5 -97 7 -3 3 45 5 105 4 141 -2 135 -3 135 19 0 11 5 23 11
26 6 4 7 19 4 36 -4 18 -3 29 4 29 6 0 11 -6 11 -12 0 -9 4 -8 10 2 8 12 10 8
11 -15 1 -24 3 -25 6 -7 2 12 8 20 12 18 4 -3 7 4 7 14 0 15 -3 17 -15 7 -8
-7 -17 -10 -20 -9 -37 22 -38 22 -47 -36z"/>
<path d="M5768 1223 c-2 -4 -6 -26 -7 -48 -3 -48 -8 -58 -24 -48 -7 4 -5 -2 3
-12 8 -10 11 -16 5 -13 -14 8 -29 -12 -34 -42 -1 -14 -8 -28 -13 -31 -6 -4 -8
-11 -4 -17 3 -6 2 -13 -4 -17 -5 -3 -10 -12 -10 -18 0 -7 4 -6 10 3 8 13 10
12 10 -2 0 -10 4 -18 10 -18 5 0 7 -7 4 -15 -5 -13 -9 -13 -23 -3 -14 11 -14
11 -4 -2 6 -8 11 -17 12 -20 0 -3 3 -13 6 -22 9 -24 1 -54 -14 -50 -7 1 -10
-2 -6 -8 3 -6 11 -8 16 -5 5 4 6 -7 3 -23 -5 -23 -1 -33 17 -46 13 -9 28 -16
34 -16 5 0 4 4 -3 9 -10 6 -9 10 7 14 23 6 40 -11 22 -22 -7 -5 -3 -12 13 -21
14 -7 23 -17 20 -22 -3 -4 1 -8 9 -8 8 0 17 -6 20 -13 4 -10 39 -12 155 -9 98
2 152 -1 157 -8 3 -5 12 -10 18 -10 7 0 6 4 -3 10 -11 7 3 10 47 9 35 -1 60
-6 57 -11 -3 -5 -12 -7 -20 -4 -7 3 -16 1 -19 -4 -7 -11 35 -6 60 7 23 13 25
13 64 13 21 0 39 10 60 32 17 18 34 29 38 25 4 -5 1 -12 -7 -17 -11 -7 -12
-10 -2 -10 7 0 10 -5 7 -10 -4 -6 -10 -8 -15 -5 -4 3 -6 -4 -3 -14 3 -11 12
-22 20 -25 8 -3 11 -1 8 4 -3 6 -1 10 4 10 6 0 11 5 11 11 0 8 -5 8 -15 -1
-10 -8 -15 -9 -15 -2 0 6 8 16 18 21 9 6 12 11 7 11 -13 0 -15 40 -2 40 4 0 5
5 2 10 -3 6 1 10 9 10 10 0 13 -6 10 -15 -4 -8 -1 -15 4 -15 6 0 9 11 6 25 -3
19 -1 23 11 18 9 -3 14 -12 11 -19 -8 -20 4 -17 20 3 9 13 9 21 1 31 -8 10 -7
16 2 21 7 5 12 11 12 15 -5 35 1 66 11 60 7 -4 8 -3 4 5 -12 18 -26 3 -26 -28
0 -23 -16 -42 -89 -105 l-89 -76 -256 0 -255 0 -70 86 c-39 47 -71 93 -71 103
0 9 -6 23 -12 30 -11 11 -10 13 3 8 13 -4 20 20 43 150 24 137 28 183 14 156z"/>
<path d="M1201 1119 c0 -9 -8 -22 -16 -29 -18 -15 -20 1 -3 18 9 9 9 12 1 12
-7 0 -15 -9 -18 -20 -3 -11 -10 -20 -14 -20 -4 0 -13 -12 -20 -27 -13 -27 -12
-27 7 -9 20 17 20 17 18 -1 -2 -10 -8 -19 -14 -19 -25 -3 -27 -5 -14 -13 10
-6 9 -11 -4 -22 -16 -12 -17 -12 -11 4 4 12 1 17 -11 18 -15 0 -15 1 1 8 20 8
21 19 4 40 -10 12 -9 14 6 8 9 -3 17 -3 17 2 0 5 -11 11 -25 13 -21 5 -30 -3
-64 -58 -33 -52 -37 -64 -23 -64 14 0 15 -2 2 -9 -8 -6 -17 -8 -21 -5 -4 2
-25 -25 -48 -61 l-40 -65 -61 0 c-33 0 -60 4 -60 10 0 5 -7 7 -16 3 -14 -5
-15 -3 -6 14 7 13 7 24 0 34 -8 11 -9 11 -4 -3 3 -10 2 -18 -2 -18 -4 0 -8
-13 -7 -30 0 -28 15 -45 15 -17 0 8 3 8 9 -2 11 -17 100 -23 119 -8 9 7 11 5
6 -8 -5 -13 -4 -16 4 -11 7 4 12 14 12 22 0 8 4 13 9 10 5 -3 15 2 22 12 13
16 13 16 -5 2 -18 -14 -19 -13 -13 3 4 10 7 21 7 23 0 3 5 2 10 -1 6 -4 10 -3
9 2 -5 31 33 75 59 67 13 -4 14 -3 4 4 -11 7 -10 10 3 16 15 5 15 9 4 23 -12
15 -11 16 8 11 13 -4 26 -2 29 3 3 5 11 6 17 2 7 -4 6 1 -2 10 -8 10 -12 20
-9 23 3 2 17 -11 32 -31 15 -19 32 -35 38 -35 7 0 3 6 -7 14 -18 13 -17 14 11
29 16 9 23 16 16 17 -7 0 -10 5 -7 10 5 8 12 7 23 -2 10 -7 14 -8 10 -4 -4 5
-3 15 3 23 6 7 9 22 6 32 -3 11 0 22 5 23 6 2 8 13 5 23 -3 15 -5 16 -6 4z"/>
<path d="M4956 1094 c-8 -29 12 -53 26 -31 6 9 8 8 8 -3 0 -13 1 -13 10 0 8
12 12 12 18 2 6 -9 12 -5 20 13 7 15 8 24 2 20 -5 -3 -10 -2 -10 4 0 16 338
12 344 -5 3 -7 2 -15 -2 -17 -4 -2 -1 -2 6 -1 15 4 14 7 1 -36 -6 -19 -13 -64
-15 -100 -5 -64 -13 -87 -21 -62 -4 10 -8 8 -18 -5 -11 -14 -10 -20 4 -31 15
-12 14 -13 -2 -8 -12 4 -16 2 -11 -6 5 -8 2 -9 -10 -5 -10 4 -15 3 -11 -3 3
-6 3 -16 -2 -22 -12 -20 -12 -36 1 -34 6 0 11 -3 11 -9 0 -5 -2 -9 -5 -8 -4 1
-6 -8 -7 -20 0 -12 -3 -31 -7 -42 -5 -13 -2 -11 7 5 9 14 13 28 11 31 -2 4 3
12 11 19 19 16 19 10 -1 -40 -9 -23 -14 -44 -10 -47 3 -4 6 1 6 10 0 11 8 17
22 17 21 0 21 0 2 -15 -17 -15 -16 -15 11 -2 32 16 89 17 102 3 4 -5 3 -6 -4
-2 -6 3 -14 2 -17 -3 -4 -5 2 -8 11 -6 10 1 17 8 15 14 -1 6 2 11 8 11 6 0 10
-7 10 -15 0 -16 33 -16 47 0 5 4 2 5 -4 1 -15 -9 -16 -2 -4 22 5 9 12 25 15
36 4 12 12 16 24 12 15 -5 15 -5 2 6 -9 7 -14 21 -12 30 3 14 8 16 22 8 13 -7
21 -5 31 6 7 8 8 14 3 12 -5 -2 -9 2 -9 7 0 6 3 9 8 7 4 -1 7 2 7 8 0 15 -19
12 -37 -5 -8 -9 -18 -13 -21 -10 -4 3 -1 10 7 14 10 7 10 9 -2 14 -11 4 -17
-11 -26 -69 l-12 -74 -89 0 c-79 0 -88 2 -84 18 18 78 64 364 59 372 -3 5 -1
11 5 15 5 3 10 12 10 18 0 7 -4 6 -10 -3 -6 -9 -10 -10 -10 -3 0 8 -57 12
-214 13 l-214 1 -6 -27z"/>
<path d="M593 1085 c0 -11 -3 -31 -7 -44 -5 -13 -4 -27 2 -33 12 -12 4 -40 -9
-32 -11 6 -12 -29 -2 -40 11 -10 12 -36 2 -36 -5 0 -10 8 -10 18 -1 9 -11 -37
-23 -103 l-22 -120 -82 -3 c-95 -3 -91 -11 -67 115 18 91 18 93 5 73 -8 -13
-11 -12 -25 5 -9 11 -13 14 -9 6 3 -7 2 -16 -4 -20 -16 -10 -22 -81 -7 -74 17
6 29 -14 14 -23 -8 -4 -9 -3 -5 4 5 8 1 10 -10 5 -14 -5 -13 -8 6 -18 14 -7
18 -15 12 -19 -6 -4 -8 -21 -5 -44 6 -35 5 -36 -12 -22 -17 14 -17 14 -4 -7
15 -25 31 -31 27 -10 -2 8 12 12 45 13 28 0 42 -3 35 -7 -7 -5 -26 -6 -43 -3
-16 3 -27 2 -24 -1 14 -14 55 -14 76 0 28 19 39 19 24 2 -8 -10 -7 -14 4 -14
7 0 13 5 12 11 -3 15 36 13 49 -3 9 -11 12 -12 19 -1 5 8 4 11 -2 7 -6 -4 -13
0 -17 8 -3 8 -1 15 4 15 5 0 6 16 3 35 -3 20 -1 35 4 35 5 0 9 15 9 32 -1 25
4 33 19 36 15 2 17 1 6 -7 -11 -7 -7 -9 12 -8 24 2 56 42 43 54 -2 2 -7 -5
-11 -16 -7 -22 -17 -25 -49 -12 -18 7 -18 8 -3 14 9 3 17 12 17 18 0 8 -6 7
-17 -2 -16 -13 -17 -12 -4 3 7 10 17 16 21 13 4 -3 10 2 14 10 3 8 11 13 18
11 7 -1 10 -1 6 1 -5 3 -8 11 -8 19 0 9 4 13 9 10 11 -7 9 13 -2 32 -5 7 -13
10 -18 6 -6 -3 -9 0 -8 7 1 8 -1 22 -6 32 -10 23 14 55 26 35 5 -7 9 -19 9
-27 0 -11 -3 -11 -17 0 -15 11 -14 10 1 -9 11 -12 20 -22 22 -22 1 0 1 16 -1
35 -2 22 1 33 7 29 6 -4 2 5 -7 20 -19 29 -27 34 -19 11 4 -8 1 -15 -4 -15 -6
0 -13 8 -16 18 -4 14 -4 13 -3 -3z"/>
<path d="M2661 1032 c-1 -16 6 -26 19 -29 11 -3 20 -9 20 -13 0 -10 -20 -8
-39 4 -10 7 -12 5 -6 -4 6 -9 -3 -11 -36 -7 -24 2 -55 7 -69 11 -21 5 -22 5
-5 -3 19 -9 19 -10 -2 -10 -12 -1 -25 -5 -28 -11 -3 -5 -11 -10 -17 -10 -7 0
-6 6 2 15 9 10 9 15 1 15 -6 0 -11 -3 -12 -7 -5 -45 -4 -71 3 -67 4 3 8 -2 8
-11 0 -9 -4 -14 -8 -11 -4 2 -8 -18 -9 -46 0 -27 3 -46 6 -41 9 12 31 14 31 3
0 -6 -10 -15 -22 -20 -17 -6 -18 -9 -6 -9 9 -1 20 4 23 9 4 6 11 7 17 4 6 -4
1 -12 -13 -21 -24 -14 -24 -14 -1 -8 23 7 28 -12 7 -27 -5 -4 0 -6 12 -5 17 1
19 4 11 14 -7 9 -7 13 0 13 15 0 33 -35 24 -45 -4 -5 -2 -5 4 -2 7 4 18 -1 25
-10 13 -14 11 -16 -13 -11 -15 3 -25 1 -22 -3 3 -5 14 -9 24 -9 10 0 20 -5 22
-12 2 -6 12 -12 21 -14 9 -1 15 1 12 6 -3 4 2 11 11 14 10 4 13 2 8 -7 -5 -9
-4 -9 7 1 20 18 33 15 18 -5 -12 -16 -12 -17 2 -6 9 7 20 9 24 5 5 -4 5 -2 1
5 -5 9 36 11 165 11 145 -1 167 -3 147 -14 -12 -7 -19 -13 -15 -14 5 0 17 5
28 10 14 8 19 7 19 -1 0 -7 2 -10 5 -7 3 3 3 13 -1 22 -5 14 -31 16 -220 16
l-213 0 -66 78 c-70 83 -68 76 -49 175 6 27 6 27 90 27 77 0 84 -2 84 -20 0
-14 5 -18 17 -13 11 4 12 8 5 11 -7 2 -12 8 -12 13 0 6 3 8 8 6 9 -7 9 45 -1
61 -10 14 -27 16 -27 2 0 -5 7 -10 15 -10 8 0 15 -4 15 -10 0 -17 -31 2 -40
24 -9 20 -9 20 -9 -2z"/>
<path d="M2357 1023 c-3 -5 -8 -30 -12 -57 -7 -43 -6 -48 8 -43 9 3 19 2 22
-3 6 -10 -7 -14 -32 -11 -8 1 -13 -9 -12 -26 1 -25 2 -26 7 -6 6 20 9 20 27 7
20 -15 20 -16 1 -29 -10 -8 -23 -12 -27 -9 -5 3 -51 -31 -101 -75 l-93 -81
-236 0 c-197 0 -239 2 -249 15 -7 8 -17 12 -23 8 -6 -3 -7 -1 -3 6 9 14 -82
123 -96 115 -5 -3 -4 -12 3 -20 10 -12 6 -18 -12 -16 -3 1 -6 -6 -6 -14 0 -7
3 -12 5 -9 3 2 16 -7 29 -21 12 -14 23 -20 23 -13 0 8 4 8 15 -1 8 -7 15 -9
16 -4 0 5 4 0 8 -11 6 -14 4 -22 -8 -28 -10 -4 -5 -5 11 -2 22 4 26 2 22 -10
-3 -8 -10 -12 -15 -9 -15 9 -10 -3 8 -17 9 -8 14 -9 10 -3 -4 7 1 18 10 25 15
12 16 12 9 -6 -4 -11 -4 -16 0 -12 4 4 13 2 21 -5 11 -8 12 -7 7 6 -5 14 2 16
51 15 31 -1 52 -5 46 -8 -6 -4 9 -7 32 -8 34 0 37 1 17 7 -16 5 7 8 63 8 48
-1 90 -5 93 -10 3 -4 11 -8 17 -8 9 0 9 2 0 8 -7 4 24 8 68 9 65 0 83 3 91 17
5 9 18 16 29 16 11 0 18 4 14 9 -3 5 -1 12 5 16 6 3 10 -4 11 -17 0 -23 0 -23
9 -2 7 17 16 21 45 19 33 -1 36 0 19 12 -16 11 -13 17 8 14 3 0 5 7 3 17 -4
28 15 54 36 49 10 -3 18 -2 17 2 -2 19 4 24 13 11 9 -13 10 -12 5 3 -3 9 -2
17 3 17 10 0 8 40 -2 57 -4 6 -1 14 5 17 7 3 1 3 -13 1 -21 -2 -26 1 -24 13 2
10 4 21 4 26 1 4 8 6 16 3 8 -4 17 -1 21 6 4 7 4 9 -1 5 -9 -9 -35 9 -35 23 0
5 5 9 11 9 5 0 7 -4 4 -10 -3 -6 1 -7 10 -3 13 5 14 7 3 14 -16 11 -25 11 -31
2z"/>
<path d="M7698 828 c9 -9 9 -15 -1 -27 -10 -14 -10 -14 3 -5 12 9 18 8 30 -4
13 -14 12 -15 -3 -9 -9 3 -19 2 -22 -4 -4 -5 -12 -7 -18 -3 -7 3 -5 0 4 -8 9
-7 15 -19 13 -26 -1 -7 0 -8 3 -2 2 5 9 8 13 5 5 -3 12 -1 15 5 4 6 1 9 -6 8
-6 -2 -14 3 -16 10 -4 11 -1 12 17 2 12 -6 19 -17 17 -24 -3 -7 4 -13 16 -13
28 -3 36 -14 27 -38 -5 -11 -9 -14 -9 -7 -1 6 -5 12 -10 12 -11 0 -9 -26 3
-37 12 -12 54 -10 50 2 -2 5 9 10 26 11 16 1 30 -2 30 -5 0 -4 35 -3 77 2 52
7 86 6 105 -1 16 -6 26 -7 23 -2 -3 5 32 8 77 7 53 0 74 -3 58 -8 -23 -6 -23
-7 -3 -8 12 -1 30 -4 40 -7 13 -4 15 -3 5 4 -11 7 -8 11 12 14 23 5 25 3 14
-11 -12 -14 -11 -14 5 -2 9 7 17 10 17 6 0 -5 10 0 21 11 l22 19 -13 -25 c-10
-21 -10 -23 1 -12 15 14 33 16 24 2 -3 -6 1 -7 10 -3 12 4 13 8 5 13 -6 4 -11
11 -11 15 1 5 -6 10 -15 11 -23 4 -31 14 -10 14 11 0 15 5 10 13 -4 6 5 1 20
-13 15 -14 27 -20 26 -15 -6 29 1 44 18 39 16 -5 16 -5 0 6 -10 6 -18 16 -18
22 0 7 5 6 15 -2 8 -7 15 -10 15 -6 0 3 10 2 23 -3 20 -8 23 -6 21 12 -1 12
-3 28 -3 36 -1 11 -4 11 -18 0 -15 -12 -16 -12 -10 4 4 10 -27 -11 -68 -47
l-76 -66 -234 0 -234 0 -62 75 c-34 41 -66 75 -72 75 -7 0 -7 -4 1 -12z"/>
</g>
</svg>
